OpenSim_Sub04_EMGBaseline_GRF.mot
version=1
nRows=40
nColumns=19
inDegrees=no
endheader
time	lFx	lFy	lFz	lCOPx	lCOPy	lCOPz	rFx	rFy	rFz	rCOPx	rCOPy	rCOPz	lMx	lMy	lMz	rMx	rMy	rMz
0	7.36119958	341.68986483	17.78908805	0.74284220	0	-0.67103523	2.86056945	337.68120129	-18.75204027	0.74979110	0	-0.38808266	0	-6.49202962	0	0	0.87077825	-0.00000000
0.01000000	7.12803096	341.89552254	17.97060468	0.74304800	0	-0.67100510	2.75039983	338.02424937	-18.55566161	0.74884733	0	-0.38805707	0	-6.52680515	0	0	0.65181273	0
0.02000000	6.94551211	342.20628502	18.06224129	0.74309316	0	-0.67104232	2.69846103	338.60171088	-18.43019086	0.74823869	0	-0.38805033	0	-6.56541664	0	0	0.49483762	0
0.03000000	6.83980716	342.67449268	18.09198931	0.74310829	0	-0.67111940	2.72412162	339.33701387	-18.36581007	0.74786480	0	-0.38810302	0	-6.59114516	0	0	0.37918795	0
0.04000000	6.77728148	343.25374732	18.07615835	0.74315340	0	-0.67116640	2.83782740	340.06741036	-18.33635181	0.74752506	0	-0.38820075	0	-6.57934736	0	0	0.30033839	-0.00000000
0.05000000	6.72484709	343.88738801	18.03566953	0.74317279	0	-0.67115943	3.02935354	340.65809849	-18.32848061	0.74715706	0	-0.38832438	0	-6.54563792	0	0	0.26198460	0.00000000
0.06000000	6.68839009	344.55208704	18.00003509	0.74309527	0	-0.67110838	3.24688090	341.04905851	-18.34150043	0.74676381	0	-0.38847526	0	-6.51162041	0	0	0.26202695	-0.00000000
0.07000000	6.69628888	345.18498490	17.98164966	0.74300464	0	-0.67102874	3.43762949	341.27879449	-18.35826002	0.74632539	0	-0.38861415	0	-6.48553642	0	0	0.27967017	-0.00000000
0.08000000	6.74991881	345.75117130	17.98458784	0.74299854	0	-0.67093074	3.56017698	341.42522619	-18.37979233	0.74590985	0	-0.38870312	0	-6.46652619	0	0	0.27397914	0.00000000
0.09000000	6.83327961	346.21740017	17.98399366	0.74307180	0	-0.67085453	3.61000653	341.49275400	-18.42237682	0.74553668	0	-0.38876260	0	-6.45184614	0	0	0.24266802	0.00000000
0.10000000	6.92476369	346.57131703	17.97081518	0.74313533	0	-0.67081259	3.58541261	341.51146958	-18.48276519	0.74526582	0	-0.38878637	0	-6.44012725	0	0	0.21872147	-0.00000000
0.11000000	7.00549354	346.80965185	17.94274765	0.74311613	0	-0.67079147	3.48897702	341.42399204	-18.56505401	0.74513616	0	-0.38880855	0	-6.42664952	0	0	0.20770198	0.00000000
0.12000000	7.06376091	346.96767962	17.93044377	0.74303967	0	-0.67076401	3.34551818	341.15015231	-18.65681365	0.74504617	0	-0.38884860	0	-6.40990383	0	0	0.20192017	0.00000000
0.13000000	7.09176525	347.01596162	17.91823621	0.74308385	0	-0.67075720	3.19061726	340.70439831	-18.73583238	0.74488165	0	-0.38888163	0	-6.39843036	0	0	0.20365976	0
0.14000000	7.09142326	346.92610598	17.88100823	0.74322929	0	-0.67077574	3.04224225	340.22955508	-18.78284960	0.74472490	0	-0.38888002	0	-6.39159069	0	0	0.21478773	0.00000000
0.15000000	7.08305358	346.71683796	17.81023706	0.74339969	0	-0.67081609	2.90413081	339.77820622	-18.79046311	0.74464722	0	-0.38888266	0	-6.39453617	0	0	0.23455743	-0.00000000
0.16000000	7.06637502	346.48367676	17.71557432	0.74360674	0	-0.67086051	2.77182266	339.39032172	-18.76276976	0.74465077	0	-0.38890015	0	-6.38809566	0	0	0.25903102	0
0.17000000	7.03058484	346.31739220	17.62268935	0.74381422	0	-0.67090022	2.65417120	339.20863161	-18.72836124	0.74484189	0	-0.38890204	0	-6.36556605	0	0	0.27343700	0
0.18000000	6.96791726	346.25194377	17.55402314	0.74407851	0	-0.67093974	2.54733359	339.33616450	-18.72080365	0.74528536	0	-0.38890986	0	-6.34290347	0	0	0.25334826	0
0.19000000	6.87794553	346.28072692	17.48616115	0.74435496	0	-0.67099149	2.42644781	339.77471571	-18.72742835	0.74574469	0	-0.38891495	0	-6.33265487	0	0	0.20004589	0.00000000
0.20000000	6.77181151	346.43851853	17.42241335	0.74469886	0	-0.67103539	2.29557225	340.48395621	-18.74006899	0.74611685	0	-0.38889318	0	-6.33362303	0	0	0.14155589	0.00000000
0.21000000	6.65630439	346.74439603	17.38449317	0.74504363	0	-0.67109038	2.16432785	341.41724659	-18.75994234	0.74645234	0	-0.38883263	0	-6.33500783	0	0	0.10610761	-0.00000000
0.22000000	6.55566627	347.13236862	17.39630745	0.74531625	0	-0.67110445	2.05836570	342.42141746	-18.78981604	0.74678794	0	-0.38876092	0	-6.31730678	0	0	0.09505396	0.00000000
0.23000000	6.47785661	347.49340304	17.43076419	0.74547634	0	-0.67108056	1.98141049	343.35088090	-18.83085887	0.74723743	0	-0.38870202	0	-6.27050298	0	0	0.08462905	0.00000000
0.24000000	6.42039045	347.75397427	17.45303683	0.74554444	0	-0.67105505	1.89682531	344.13136079	-18.87025855	0.74781497	0	-0.38861343	0	-6.21321793	0	0	0.07077891	-0.00000000
0.25000000	6.39469542	347.82665669	17.43236321	0.74574220	0	-0.67107983	1.79494504	344.62626602	-18.91095692	0.74848079	0	-0.38853026	0	-6.17951415	0	0	0.05683563	0.00000000
0.26000000	6.37108675	347.64085443	17.39351455	0.74612650	0	-0.67109738	1.68831861	344.75722014	-18.95161773	0.74900851	0	-0.38845648	0	-6.16954095	0	0	0.05486567	0.00000000
0.27000000	6.33712246	347.24642025	17.36925246	0.74660615	0	-0.67108168	1.60006141	344.56659234	-18.98726536	0.74933638	0	-0.38837580	0	-6.18006213	0	0	0.07063246	-0.00000000
0.28000000	6.30101310	346.76764703	17.37731718	0.74699268	0	-0.67105927	1.54196297	344.21254201	-19.03261283	0.74966884	0	-0.38829301	0	-6.20659499	0	0	0.09630447	0.00000000
0.29000000	6.27570060	346.26755785	17.41099975	0.74727368	0	-0.67105058	1.47974057	343.79796254	-19.09362077	0.75012991	0	-0.38820449	0	-6.25406462	0	0	0.12085247	-0.00000000
0.30000000	6.26331799	345.80894905	17.44234214	0.74758705	0	-0.67105013	1.38894491	343.38438698	-19.16137295	0.75068048	0	-0.38808281	0	-6.29895513	0	0	0.13551916	-0.00000000
0.31000000	6.24764642	345.44610400	17.46154494	0.74796916	0	-0.67102196	1.26881175	343.01836835	-19.22183153	0.75120829	0	-0.38793586	0	-6.31971197	0	0	0.15187162	0
0.32000000	6.20503369	345.24234505	17.49385488	0.74839400	0	-0.67097740	1.12054655	342.81633720	-19.26837616	0.75170358	0	-0.38777654	0	-6.30713750	0	0	0.17016759	0.00000000
0.33000000	6.13346664	345.16860380	17.54162667	0.74887247	0	-0.67095340	0.95174147	342.80588659	-19.31974130	0.75218842	0	-0.38761644	0	-6.27878907	0	0	0.17286821	-0.00000000
0.34000000	6.06200734	345.17076077	17.63051184	0.74931407	0	-0.67095165	0.75869996	342.95003526	-19.36580186	0.75270010	0	-0.38746341	0	-6.24607560	0	0	0.16507214	0
0.35000000	6.01837258	345.15639065	17.77908584	0.74965232	0	-0.67091888	0.57811160	343.17928136	-19.39194374	0.75328241	0	-0.38732187	0	-6.20663793	0	0	0.15262704	0
0.36000000	5.99616376	345.05894438	17.94986453	0.74997361	0	-0.67084944	0.45181693	343.40218451	-19.40831197	0.75389084	0	-0.38717669	0	-6.15031272	0	0	0.14803622	-0.00000000
0.37000000	5.94387219	344.91144861	18.10019961	0.75031975	0	-0.67077526	0.34723663	343.53825282	-19.42933980	0.75445033	0	-0.38704722	0	-6.07405922	0	0	0.17045105	-0.00000000
0.38000000	5.82913243	344.81160518	18.22855570	0.75076753	0	-0.67074098	0.22046529	343.60790239	-19.47869272	0.75496419	0	-0.38695123	0	-5.98398574	0	0	0.20307299	0.00000000
0.39000000	5.60231935	344.74594611	18.33620242	0.75142760	0	-0.67071091	0.02007595	343.75551294	-19.57222027	0.75552396	0	-0.38685570	0	-5.90059549	0	0	0.23517831	0.00000000
